<?xml version="1.0" encoding="UTF-8" standalone="no"?>
<!-- Created with Inkscape (http://www.inkscape.org/) -->

<svg
   version="1.1"
   id="svg48"
   width="440"
   height="440"
   viewBox="0 0 440.00001 440.00001"
   sodipodi:docname="schildpad_square_rotated_new.svg"
   inkscape:version="1.2.1 (9c6d41e410, 2022-07-14)"
   xmlns:inkscape="http://www.inkscape.org/namespaces/inkscape"
   xmlns:sodipodi="http://sodipodi.sourceforge.net/DTD/sodipodi-0.dtd"
   xmlns="http://www.w3.org/2000/svg"
   xmlns:svg="http://www.w3.org/2000/svg">
  <defs
     id="defs52">
    <inkscape:path-effect
       effect="fillet_chamfer"
       id="path-effect4903"
       is_visible="true"
       lpeversion="1"
       nodesatellites_param="F,0,0,1,0,10,0,1 @ F,0,0,1,0,10,0,1 @ F,0,0,1,0,10,0,1"
       unit="px"
       method="auto"
       mode="F"
       radius="10"
       chamfer_steps="1"
       flexible="false"
       use_knot_distance="true"
       apply_no_radius="true"
       apply_with_radius="true"
       only_selected="false"
       hide_knots="false" />
    <inkscape:path-effect
       effect="fillet_chamfer"
       id="path-effect4842"
       is_visible="true"
       lpeversion="1"
       nodesatellites_param="F,0,0,1,0,10,0,1 @ F,0,0,1,0,10,0,1 @ F,0,0,1,0,10,0,1 @ F,0,0,1,0,10,0,1 @ F,0,0,1,0,10,0,1 @ F,0,0,1,0,10,0,1"
       unit="px"
       method="auto"
       mode="F"
       radius="10"
       chamfer_steps="1"
       flexible="false"
       use_knot_distance="true"
       apply_no_radius="true"
       apply_with_radius="true"
       only_selected="false"
       hide_knots="false" />
    <inkscape:path-effect
       effect="fillet_chamfer"
       id="path-effect4781"
       is_visible="true"
       lpeversion="1"
       nodesatellites_param="F,0,0,1,0,10,0,1 @ F,0,0,1,0,10,0,1 @ F,0,0,1,0,10,0,1"
       unit="px"
       method="auto"
       mode="F"
       radius="10"
       chamfer_steps="1"
       flexible="false"
       use_knot_distance="true"
       apply_no_radius="true"
       apply_with_radius="true"
       only_selected="false"
       hide_knots="false" />
  </defs>
  <sodipodi:namedview
     id="namedview50"
     pagecolor="#ffffff"
     bordercolor="#666666"
     borderopacity="1.0"
     inkscape:showpageshadow="2"
     inkscape:pageopacity="0"
     inkscape:pagecheckerboard="true"
     inkscape:deskcolor="#d1d1d1"
     showgrid="false"
     inkscape:zoom="1.2032371"
     inkscape:cx="260.9627"
     inkscape:cy="235.19887"
     inkscape:window-width="1920"
     inkscape:window-height="1011"
     inkscape:window-x="0"
     inkscape:window-y="0"
     inkscape:window-maximized="1"
     inkscape:current-layer="g54" />
  <g
     inkscape:groupmode="layer"
     inkscape:label="Image"
     id="g54"
     transform="translate(-589.69966,-1565.2989)">
    <path
       style="fill:#72e871;fill-opacity:1;stroke-width:5.37144"
       id="path3932-1-2-7"
       sodipodi:type="arc"
       sodipodi:cx="68.38884"
       sodipodi:cy="2108.1074"
       sodipodi:rx="27.49007"
       sodipodi:ry="48.619633"
       sodipodi:start="1.3573963"
       sodipodi:end="4.7403526"
       sodipodi:arc-type="arc"
       d="m 74.210797,2155.6242 a 27.49007,48.619633 0 0 1 -27.597015,-17.8402 27.49007,48.619633 0 0 1 -2.72041,-51.7438 27.49007,48.619633 0 0 1 25.264089,-26.5334"
       transform="rotate(-25.164026)"
       sodipodi:open="true" />
    <path
       style="fill:#72e871;fill-opacity:1;stroke-width:5.37144"
       id="path3932-1-2-7-3"
       sodipodi:type="arc"
       sodipodi:cx="260.78836"
       sodipodi:cy="1963.5726"
       sodipodi:rx="27.49007"
       sodipodi:ry="48.619633"
       sodipodi:start="1.3573963"
       sodipodi:end="4.7403526"
       sodipodi:arc-type="arc"
       d="m 266.61032,2011.0894 a 27.49007,48.619633 0 0 1 -27.59702,-17.8402 27.49007,48.619633 0 0 1 -2.72041,-51.7437 27.49007,48.619633 0 0 1 25.26409,-26.5335"
       transform="rotate(-15.107032)"
       sodipodi:open="true" />
    <path
       id="path401"
       style="fill:#34b533;fill-opacity:1;stroke:none;stroke-width:0.84064px;stroke-linecap:butt;stroke-linejoin:miter;stroke-opacity:1"
       d="m 871.35082,1703.3407 a 164.26704,141.13187 14.259658 0 0 -155.06021,33.198 l 0.0858,-0.2421 -11.30161,-10.3387 c 0,0 0.95019,-8.3127 -11.29153,-17.9113 -11.09404,-8.6986 -52.27441,-25.8266 -65.27508,-24.4689 -1.34501,0.14 -2.38748,0.4791 -3.06469,1.0449 -7.22392,6.0356 -12.38176,19.4644 -7.4346,36.5164 6.08688,20.9804 46.53351,39.1305 46.53351,39.1305 8.65544,9.7836 14.47033,16.3851 18.9469,21.4811 a 164.26704,141.13187 14.259658 0 0 -6.10818,17.9127 164.267,28.608652 14.259658 0 0 73.50155,44.2432 164.267,28.608652 14.259658 0 0 159.2045,40.4613 164.267,28.608652 14.259658 0 0 85.70672,-3.7808 164.26704,141.13187 14.259658 0 0 -124.44301,-177.2463 z" />
    <path
       id="path4775"
       style="fill:#72e871;fill-opacity:1;stroke:none;stroke-width:4.979;stroke-linejoin:miter;stroke-dasharray:none;stroke-opacity:1"
       d="m 817.51221,1706.4377 c -2.00612,-0.2393 -4.02791,0.1142 -6.03648,0.1946 -11.77275,0.8837 -23.46088,2.9419 -34.80911,6.2012 -1.4651,0.4323 -3.14172,0.9272 -4.67727,1.4258 -14.12569,4.5153 -27.64988,10.9787 -39.90132,19.3492 -1.44004,0.9923 -3.04064,2.1252 -4.51133,3.2164 -7.51016,5.5986 -14.51356,11.911 -20.67977,18.968 -1.06702,1.2636 -1.58261,3.31 -0.37907,4.6607 1.53519,1.7723 4.03924,1.8685 6.13784,2.5013 27.6893,6.9197 55.37153,13.8696 83.06522,20.7705 3.62512,0.8195 7.60803,-1.2812 8.9999,-4.7235 0.77082,-2.1938 1.18178,-4.4996 1.80454,-6.7392 5.00343,-19.7831 10.03114,-39.5603 15.01937,-59.347 0.5099,-2.1909 -0.2436,-4.8226 -2.34472,-5.9008 -0.52333,-0.2876 -1.10076,-0.4736 -1.6878,-0.5771 z" />
    <path
       id="path4837"
       style="fill:#72e871;fill-opacity:1;stroke:none;stroke-width:4.97884;stroke-opacity:1"
       d="m 859.35964,1709.129 c -3.67942,-0.7086 -7.40672,-1.3186 -11.05617,-1.8006 -2.5882,-0.3369 -5.07463,-0.6295 -7.64207,-0.8436 -4.75373,-0.1173 -9.18953,3.6492 -10.07176,8.2851 -5.57608,21.9791 -11.18951,43.9502 -16.74226,65.9344 -0.79576,3.2277 0.67449,6.8413 3.51037,8.5813 1.93933,1.1958 4.27351,1.4103 6.42221,2.0539 21.8876,5.5533 43.76667,11.142 65.65952,16.6731 3.56213,0.7589 7.44916,-1.2814 8.84962,-4.6434 0.77281,-2.1151 1.15366,-4.3536 1.76112,-6.5202 4.91369,-19.4454 9.86159,-38.8828 14.75389,-58.3334 0.74678,-4.1586 -1,-8.7297 -4.4129,-11.2455 -2.17872,-1.3407 -4.5351,-2.3732 -6.82249,-3.5147 -4.9114,-2.3479 -10.04799,-4.513 -15.07132,-6.3949 -3.45955,-1.2859 -6.93189,-2.4716 -10.41001,-3.5444 -2.83133,-0.8717 -5.59372,-1.6443 -8.485,-2.4043 -3.40694,-0.7911 -6.82981,-1.5169 -10.24275,-2.2828 z" />
    <path
       id="path4898"
       style="fill:#72e871;fill-opacity:1;stroke:none;stroke-width:4.97884;stroke-opacity:1"
       d="m 928.12907,1739.4072 c -1.94406,-0.425 -3.83923,0.9147 -4.56683,2.6731 -0.77687,1.9175 -1.08465,3.9894 -1.657,5.9732 -4.77426,18.8242 -9.58589,37.6404 -14.33683,56.4696 -0.79576,3.2278 0.67449,6.8414 3.51038,8.5815 1.93932,1.1958 4.2735,1.4103 6.42221,2.0539 22.69558,5.7598 45.38378,11.5503 68.08393,17.2912 1.69096,0.3794 3.9086,0.075 4.71753,-1.6728 0.84903,-1.822 0.025,-3.8834 -0.36501,-5.6205 -4.49223,-17.8386 -12.77644,-34.6325 -23.686,-49.4113 -0.49083,-0.6453 -1.02191,-1.3784 -1.54051,-2.0457 -1.90308,-2.4928 -3.81121,-4.8354 -5.86195,-7.2214 -1.04235,-1.2114 -2.32327,-2.6414 -3.39439,-3.8189 -3.43424,-3.7294 -7.04103,-7.3076 -10.76073,-10.6773 -4.63185,-4.1795 -9.46454,-8.1496 -14.54608,-11.77 -0.61751,-0.3856 -1.29992,-0.6763 -2.01872,-0.8046 z" />
    <path
       style="fill:#72e871;fill-opacity:1;stroke-width:5.37144"
       id="path3932-1-2"
       sodipodi:type="arc"
       sodipodi:cx="650.70752"
       sodipodi:cy="1997.1227"
       sodipodi:rx="27.49007"
       sodipodi:ry="48.619633"
       sodipodi:start="1.3573963"
       sodipodi:end="4.7403526"
       sodipodi:arc-type="arc"
       d="m 656.52948,2044.6394 a 27.49007,48.619633 0 0 1 -27.59702,-17.8401 27.49007,48.619633 0 0 1 -2.72041,-51.7438 27.49007,48.619633 0 0 1 25.26409,-26.5334"
       transform="rotate(-8.131051)"
       sodipodi:open="true" />
    <path
       style="fill:#72e871;fill-opacity:1;stroke-width:5.37144"
       id="path3932-1-2-9"
       sodipodi:type="arc"
       sodipodi:cx="678.38483"
       sodipodi:cy="1854.7759"
       sodipodi:rx="27.49007"
       sodipodi:ry="48.619633"
       sodipodi:start="1.3573963"
       sodipodi:end="4.7403526"
       sodipodi:arc-type="arc"
       d="m 684.20678,1902.2926 a 27.49007,48.619633 0 0 1 -27.59701,-17.8401 27.49007,48.619633 0 0 1 -2.72041,-51.7438 27.49007,48.619633 0 0 1 25.26409,-26.5334"
       transform="rotate(-1.687427)"
       sodipodi:open="true" />
  </g>
</svg>
