<?xml version="1.0" encoding="UTF-8" standalone="no"?>
<svg
   role="img"
   viewBox="0 0 24 24"
   version="1.1"
   id="svg6"
   sodipodi:docname="googleplay.svg"
   inkscape:version="1.2.1 (9c6d41e410, 2022-07-14)"
   xmlns:inkscape="http://www.inkscape.org/namespaces/inkscape"
   xmlns:sodipodi="http://sodipodi.sourceforge.net/DTD/sodipodi-0.dtd"
   xmlns="http://www.w3.org/2000/svg"
   xmlns:svg="http://www.w3.org/2000/svg"
   xmlns:rdf="http://www.w3.org/1999/02/22-rdf-syntax-ns#"
   xmlns:cc="http://creativecommons.org/ns#"
   xmlns:dc="http://purl.org/dc/elements/1.1/">
  <defs
     id="defs10" />
  <sodipodi:namedview
     id="namedview8"
     pagecolor="#ffffff"
     bordercolor="#000000"
     borderopacity="0.25"
     inkscape:showpageshadow="2"
     inkscape:pageopacity="0.0"
     inkscape:pagecheckerboard="true"
     inkscape:deskcolor="#d1d1d1"
     showgrid="false"
     inkscape:zoom="32.583333"
     inkscape:cx="12.015345"
     inkscape:cy="10.803069"
     inkscape:window-width="1920"
     inkscape:window-height="1011"
     inkscape:window-x="0"
     inkscape:window-y="0"
     inkscape:window-maximized="1"
     inkscape:current-layer="svg6" />
  <title
     id="title2">Google Play</title>
  <path
     d="M22.018 13.298l-3.919 2.218-3.515-3.493 3.543-3.521 3.891 2.202a1.49 1.49 0 0 1 0 2.594zM1.337.924a1.486 1.486 0 0 0-.112.568v21.017c0 .217.045.419.124.6l11.155-11.087L1.337.924zm12.207 10.065l3.258-3.238L3.45.195a1.466 1.466 0 0 0-.946-.179l11.04 10.973zm0 2.067l-11 10.933c.298.036.612-.016.906-.183l13.324-7.54-3.23-3.21z"
     id="path4"
     style="fill:#ffffff;fill-opacity:1" />
  <metadata
     id="metadata1519">
    <rdf:RDF>
      <cc:Work
         rdf:about="">
        <dc:title>Google Play</dc:title>
      </cc:Work>
    </rdf:RDF>
  </metadata>
</svg>
